<?xml version="1.0" encoding="UTF-8" standalone="no"?>
<!-- Created with Inkscape (http://www.inkscape.org/) -->

<svg
   width="621.81256mm"
   height="155.61482mm"
   viewBox="0 0 621.81256 155.61482"
   version="1.1"
   id="svg1"
   xml:space="preserve"
   xmlns="http://www.w3.org/2000/svg"
   xmlns:svg="http://www.w3.org/2000/svg"><defs
     id="defs1" /><g
     id="layer1"
     transform="translate(362.5528,-436.68868)"><path
       style="fill:#f9f9f9;fill-opacity:1;stroke-width:2.71194"
       d="m -240.83989,489.0051 c 9.27862,-21.31926 11.21877,-25.9775 10.93706,-26.25922 -0.17953,-0.17926 -2.30301,0.79121 -4.71913,2.15692 -2.41612,1.36568 -4.52506,2.26186 -4.6865,1.99151 -0.16136,-0.27038 -0.92567,-1.62166 -1.69827,-3.00293 -10.00041,-17.87908 -12.79439,-21.47037 -17.87762,-22.97948 -6.75818,-2.00637 -11.75115,1.0652 -17.69133,10.88331 -2.24581,3.71194 -4.08326,7.17126 -4.08326,7.68737 0,0.51614 1.17451,2.93012 2.61003,5.36441 1.43553,2.43426 3.39127,5.8126 4.34612,7.50743 0.95482,1.69483 2.84038,4.91471 4.19011,7.15531 l 2.45403,4.0738 -3.75064,2.33481 c -2.06283,1.28416 -4.07352,2.45979 -4.46816,2.61255 -0.39464,0.15268 -0.54849,0.46407 -0.34189,0.69182 0.44847,0.49436 29.03797,3.98318 31.41133,3.83316 1.27602,-0.0806 2.04027,-0.99981 3.36812,-4.05077 z"
       id="path60" /><path
       style="fill:#f9f9f9;fill-opacity:1;stroke-width:2.71194"
       d="m -305.21793,494.02783 c 2.16741,-3.74912 7.56351,-13.11293 11.99132,-20.80847 16.98862,-29.52628 18.04177,-31.11399 22.46107,-33.86186 l 2.66342,-1.6561 -3.94641,-0.46719 c -2.17056,-0.25709 -9.31779,-0.4991 -15.88274,-0.53813 -21.02596,-0.12502 -22.52258,1.00988 -38.84877,29.45958 -5.81025,10.12483 -10.55514,18.68143 -10.54421,19.01465 0.0163,0.52384 8.59207,5.67926 21.10154,12.68675 1.99843,1.11946 3.94967,2.33972 4.33609,2.71169 1.4712,1.41612 2.85096,0.0629 6.66869,-6.54092 z"
       id="path61" /><path
       style="fill:#f9f9f9;fill-opacity:1;stroke-width:2.71194"
       d="m -327.69595,532.80055 c 3.42714,-5.93391 6.38705,-10.7889 6.57759,-10.7889 0.19065,0 2.14211,1.14867 4.33677,2.55258 2.1947,1.40395 4.15429,2.38865 4.35467,2.18827 0.37284,-0.37284 -11.72862,-29.0193 -12.70893,-30.08444 -0.51839,-0.56327 -32.23036,2.79203 -32.92161,3.48324 -0.43074,0.43077 -0.45737,0.41168 4.35779,3.12183 l 4.09416,2.30433 -1.47966,2.65621 c -0.81383,1.46092 -3.2412,5.65889 -5.39418,9.32885 -2.15298,3.66996 -4.3957,8.02897 -4.98379,9.68669 -2.07569,5.85104 -1.12643,11.91217 2.34016,14.94227 2.91685,2.5496 5.07751,3.09213 13.88597,3.4868 7.91062,0.35439 9.10731,0.25492 10.13953,-0.8435 0.64371,-0.68495 3.9744,-6.10034 7.40153,-12.03423 z"
       id="path62" /><path
       style="fill:#f9f9f9;fill-opacity:1;stroke-width:2.71194"
       d="m -212.93285,560.24641 c 8.90387,-14.59539 9.75208,-16.62617 9.76054,-23.36897 0.005,-3.40188 -0.42382,-6.62641 -1.09546,-8.25165 -1.75514,-4.24697 -22.13349,-39.75699 -23.0137,-40.10222 -0.97687,-0.38314 -27.54628,14.77451 -27.54628,15.71492 0,0.37016 2.80173,5.56995 6.22604,11.55506 5.80955,10.15415 19.0421,33.02515 21.44892,37.07207 3.23388,5.43757 5.32378,10.27988 6.13793,14.22168 0.50372,2.43876 1.12833,4.19195 1.38805,3.896 0.2598,-0.29596 3.27198,-5.12757 6.69396,-10.73689 z"
       id="path63" /><path
       style="fill:#f9f9f9;fill-opacity:1;stroke-width:2.71194"
       d="m -284.96414,566.17869 v -16.1058 l -33.9035,-0.21804 c -33.41488,-0.21505 -33.9539,-0.24136 -37.40295,-1.83254 -1.92474,-0.88794 -3.80398,-1.61444 -4.17609,-1.61444 -1.37232,0 13.10366,25.32964 16.53925,28.93986 5.94644,6.24874 8.87751,6.80057 36.52033,6.87579 l 22.42296,0.061 z"
       id="path64" /><path
       style="fill:#f9f9f9;fill-opacity:1;stroke-width:2.71194"
       d="m -261.28555,587.30724 v -5.02275 l 12.01871,-0.003 c 12.93435,-0.005 16.45553,-0.58836 20.0917,-3.33246 6.56577,-4.95504 5.85792,-13.10756 -2.25378,-25.95732 l -1.89079,-2.99526 h -13.95274 -13.95274 l -0.20963,-5.51806 -0.20963,-5.51809 -9.11616,12.29251 c -5.01388,6.76089 -9.49976,12.90677 -9.9686,13.65749 -0.74694,1.19607 0.33675,2.97369 8.7574,14.36527 5.2854,7.15019 9.85201,13.0127 10.14799,13.02786 0.29598,0.0163 0.53813,-2.23271 0.53813,-4.9952 z"
       id="path65" /><path
       id="path66"
       style="fill:#f9f9f9;fill-opacity:1;stroke-width:2.71194"
       d="m 113.42109,468.72899 c -13.24267,-0.0163 -17.387463,0.59771 -12.0117,1.77844 4.3269,0.95034 4.29821,0.80354 4.29821,21.69838 0,21.03101 -0.13912,21.711 -4.41731,21.711 -1.15453,0 -2.040249,0.38968 -2.040494,0.89692 -3.25e-4,0.69442 3.434564,0.86044 15.216774,0.73575 12.47041,-0.13207 15.86156,-0.39107 18.77779,-1.43505 3.80924,-1.36367 7.33701,-4.37946 8.40161,-7.17956 1.11922,-2.94395 0.74654,-7.41211 -0.83246,-9.967 -0.99905,-1.61648 -2.86825,-3.04141 -5.68563,-4.33463 l -4.19727,-1.92556 3.35361,-1.57241 c 7.49694,-3.51312 7.89351,-12.45176 0.78622,-17.71411 -2.9933,-2.21628 -6.67316,-2.67408 -21.64935,-2.69217 z m 3.76704,2.72721 3.04952,0.47508 c 4.09571,0.63879 6.43167,2.43014 7.64482,5.86079 1.30057,3.67783 0.62451,6.29298 -2.41327,9.33075 -1.93841,1.93844 -2.96068,2.39785 -5.33945,2.39785 h -2.94162 v -9.03225 z m 3.43633,21.79647 c 9.14992,-0.19471 12.98972,11.79889 5.45018,17.72955 -2.06416,1.62369 -7.70858,2.10541 -8.55855,0.73013 h -0.001 c -0.26143,-0.42281 -0.4657,-4.70111 -0.45406,-9.50732 l 0.0217,-8.73792 3.10138,-0.19635 c 0.1478,-0.008 0.29481,-0.0163 0.44004,-0.019 z" /><path
       id="path67"
       style="fill:#f9f9f9;fill-opacity:1;stroke-width:2.71194"
       d="m -43.155443,468.70938 c -18.339297,0 -23.414691,0.51763 -17.597799,1.79523 4.329177,0.95086 4.298206,0.79158 4.298206,21.82313 0,17.70213 -0.103596,19.30467 -1.313147,20.39926 -1.865543,1.68829 -6.920218,1.7518 -8.735128,0.10929 -1.823047,-1.64981 -13.630341,-17.93817 -13.630341,-18.80304 0,-0.35174 1.129523,-1.04803 2.509954,-1.54719 3.836146,-1.38715 6.327116,-5.15876 6.627382,-10.03425 0.336931,-5.47082 -1.692196,-9.01899 -6.604954,-11.54782 -3.467214,-1.78475 -4.022918,-1.8433 -19.911571,-2.08393 -11.156459,-0.16896 -16.344909,-0.008 -16.344909,0.51152 0,0.41691 1.25414,1.09506 2.78747,1.50795 1.92951,0.51958 2.92062,1.24643 3.21907,2.36001 0.23702,0.88493 0.43608,9.8176 0.44145,19.8499 0.0108,20.10339 -0.15079,20.86455 -4.4075,20.86455 -1.93974,0 -2.57594,0.65997 -1.58922,1.64669 0.24787,0.24787 5.62876,0.38205 11.95843,0.2985 8.457909,-0.11173 11.587677,-0.38908 11.807073,-1.04827 0.191734,-0.58323 -0.455037,-0.89413 -1.862506,-0.89413 -3.89014,0 -4.415931,-1.2889 -4.415931,-10.81486 0,-11.34051 0.569995,-11.32994 8.610406,0.15702 3.354451,4.79238 6.792349,9.56273 7.640616,10.60046 l 1.542985,1.88631 27.863301,-0.019 27.863301,-0.019 0.84786,-6.09905 c 1.071135,-7.71229 1.127977,-9.32793 0.332131,-9.32793 -0.351792,0 -1.1849,1.3723 -1.851278,3.0495 -2.549981,6.41823 -7.000571,9.14856 -14.915474,9.14856 -3.139503,0 -5.615178,-0.34718 -6.128466,-0.86047 -0.576504,-0.57651 -0.860471,-3.7824 -0.860471,-9.70072 v -8.83886 l 1.973234,0.45689 c 4.166704,0.96669 5.67183,2.93705 7.787739,10.19821 0.151055,0.51834 0.598986,0.74177 0.99642,0.49613 0.439118,-0.27136 0.723139,-5.21506 0.723139,-12.60171 0,-10.32671 -0.161903,-12.15602 -1.076287,-12.15602 -0.594267,0 -1.076315,0.63668 -1.076315,1.42106 0,4.64666 -3.949857,9.34195 -7.857815,9.34195 -1.407985,0 -1.470115,-0.40196 -1.470115,-9.43025 v -9.43025 l 5.649185,0.3868 c 8.14078,0.55798 11.478227,2.63286 13.106204,8.14653 0.514103,1.74112 1.267289,3.05505 1.673294,2.92059 0.418506,-0.13858 0.826761,-3.248 0.943185,-7.18094 l 0.206107,-6.9385 z m -52.763971,2.87295 h 2.892581 c 8.07572,0 12.295768,5.87569 10.030052,13.96809 -0.756441,2.70163 -1.374492,3.4386 -3.908609,4.66534 -1.655232,0.80127 -4.360879,1.45751 -6.012152,1.45751 h -3.001872 v -10.04548 z" /><path
       id="path68"
       style="fill:#f9f9f9;fill-opacity:1;stroke-width:2.71194"
       d="m -72.240798,536.16037 v 11.8393 11.83932 h 2.472149 c 2.440067,0 2.474862,-0.0442 2.690732,-3.40828 0.31152,-4.85483 2.193877,-4.90975 5.831374,-0.16814 2.560558,3.33769 2.95463,3.57648 5.919647,3.57648 1.747085,0 3.177063,-0.19743 3.177063,-0.43866 0,-0.24136 -1.250285,-1.93638 -2.777649,-3.76705 l -2.776239,-3.32841 2.058715,-2.01807 c 1.720915,-1.6865 2.060097,-2.60484 2.060097,-5.5861 0,-6.69185 -2.741526,-8.54033 -12.664755,-8.54033 z m 5.022755,5.02273 h 3.603082 c 3.175897,0 3.702556,0.21831 4.445356,1.84849 1.315507,2.88729 0.02712,4.20903 -4.355672,4.46637 l -3.692766,0.21723 v -3.26675 z" /><path
       id="path69"
       style="fill:#f9f9f9;fill-opacity:1;stroke-width:2.71194"
       d="m -28.496437,535.93753 c -0.777703,0.16055 -12.164294,20.63607 -12.764256,22.99052 -0.159191,0.62505 0.688914,0.91094 2.706163,0.91094 2.437707,0 3.077725,-0.30553 3.755845,-1.79384 0.761187,-1.67066 1.171314,-1.79384 5.963093,-1.79384 4.753703,0 5.217635,0.13641 6.104628,1.79384 0.801812,1.49819 1.483187,1.79384 4.132833,1.79384 h 3.17286 l -2.85193,-5.20212 c -1.568477,-2.86118 -4.389815,-8.10813 -6.268619,-11.65993 -1.87875,-3.5518 -3.642975,-6.71679 -3.921193,-7.03241 -0.0081,-0.008 -0.01627,-0.0109 -0.02929,-0.008 z m -0.417639,11.38665 c 0.441206,0.008 0.912188,0.57878 1.488312,1.69293 1.489289,2.87994 1.467078,2.929 -1.366383,2.929 -2.437681,0 -2.46358,-0.0317 -1.723763,-2.15401 0.580328,-1.6647 1.069345,-2.47673 1.601834,-2.46792 z" /><path
       id="path70"
       style="fill:#f9f9f9;fill-opacity:1;stroke-width:2.71194"
       d="m 32.51915,535.99779 v 11.98507 11.98647 l 7.48365,-0.24516 c 6.19575,-0.20258 7.824025,-0.499 9.462497,-1.72377 3.660195,-2.73602 4.802139,-4.94966 4.862967,-9.42884 0.06373,-4.68395 -1.467023,-8.04393 -4.797121,-10.52617 -1.655829,-1.23426 -3.30382,-1.54036 -9.507326,-1.77 z m 5.022728,5.18531 3.767073,0.0244 c 4.256252,0.0271 6.627599,1.48582 7.396759,4.55047 0.736563,2.9347 -0.275723,6.79183 -2.095135,7.98395 -1.888107,1.23716 -7.740416,2.18615 -8.53054,1.38322 v -10e-4 c -0.295981,-0.30078 -0.538157,-3.56066 -0.538157,-7.24399 z" /><path
       id="path71"
       style="fill:#f9f9f9;fill-opacity:1;stroke-width:2.71194"
       d="m 78.620701,536.36217 c -0.659571,-0.0477 -1.515458,1.48395 -8.531922,14.68702 l -4.67099,8.7898 h 3.167247 c 2.682704,0 3.293514,-0.27472 3.985682,-1.79384 0.764062,-1.67693 1.161551,-1.79384 6.099042,-1.79384 4.937519,0 5.33498,0.11689 6.099042,1.79384 0.674568,1.48056 1.321013,1.79384 3.702583,1.79384 1.587027,0 2.868174,-0.24218 2.847699,-0.53816 -0.07648,-1.10324 -11.925046,-22.70389 -12.568047,-22.91203 -0.04393,-0.0136 -0.08624,-0.0244 -0.130444,-0.0271 z m 0.11363,10.6621 c 0.01085,-1.4e-4 0.0217,0.003 0.02793,0.0108 0.11797,0.13533 0.747736,1.29601 1.400039,2.57862 l 1.185605,2.332 H 78.81832 c -1.391387,0 -2.529588,-0.17817 -2.529588,-0.39521 0,-0.65314 2.107529,-4.52186 2.445518,-4.52663 z" /><path
       id="path72"
       style="fill:#f9f9f9;fill-opacity:1;stroke-width:2.71194"
       d="m 153.04241,535.90952 c -1.23502,-0.0244 -2.53013,0.0984 -3.86934,0.38398 -6.32053,1.34805 -10.74929,8.52767 -9.08131,14.72206 1.03916,3.85912 2.98327,6.19307 6.68344,8.0246 3.7713,1.86679 7.16036,1.90367 11.08814,0.12041 1.76542,-0.80151 3.93798,-2.64549 5.26658,-4.46916 2.03266,-2.79007 2.2335,-3.51492 1.97744,-7.15993 -0.49094,-6.98875 -5.39578,-11.48544 -12.06495,-11.62207 z m -0.41623,4.9008 c 2.01391,-0.0393 3.80111,0.93486 5.36749,2.92618 4.51283,5.73711 -1.4892,13.82042 -8.23762,11.09376 -2.85575,-1.15385 -4.75801,-4.39741 -4.35426,-7.4248 0.43885,-3.29062 2.00165,-5.18268 5.13487,-6.21674 0.72227,-0.23838 1.41823,-0.36525 2.08952,-0.3784 z" /><path
       style="fill:#f9f9f9;fill-opacity:1;stroke-width:2.71194"
       d="m 170.64419,514.94518 c 0,-0.36853 -1.02533,-0.76944 -2.27854,-0.8909 -4.03681,-0.39131 -4.15762,-0.92377 -4.41056,-19.44054 -0.12719,-9.31307 -0.0244,-18.31193 0.22563,-19.99748 0.43177,-2.89595 0.62974,-3.11087 3.59698,-3.90449 1.72704,-0.4619 2.97874,-1.10088 2.78155,-1.41994 -0.48755,-0.78891 -24.66996,-0.7421 -24.66996,0.0477 0,0.34533 1.0186,0.83159 2.2636,1.08057 4.30005,0.86001 4.1942,0.31363 4.1942,21.64805 0,21.55216 -0.0591,21.84817 -4.35646,21.84817 -1.8788,0 -2.65043,0.64682 -1.79367,1.50358 0.63733,0.63733 24.44723,0.17492 24.44723,-0.47475 z"
       id="path73" /><path
       style="fill:#f9f9f9;fill-opacity:1;stroke-width:2.71194"
       d="m 24.375089,514.99266 c 0.821338,-2.5909 2.064708,-14.11664 1.556762,-14.43058 -0.34222,-0.21153 -1.240712,1.01153 -1.996692,2.71783 -1.730353,3.90557 -5.48327,7.57935 -8.678829,8.49582 -3.073874,0.8816 -10.7340164,0.90251 -12.1079659,0.0331 -1.2031789,-0.76138 -2.1142276,-16.92204 -1.0158924,-18.0204 0.3910074,-0.39098 1.6985416,-0.36305 3.2661236,0.0697 2.0676365,0.57089 2.9256126,1.36528 4.1042212,3.79995 0.8195475,1.69298 1.4901015,3.78342 1.4901015,4.64541 0,0.91482 0.448094,1.56731 1.076315,1.56731 0.91471,0 1.076287,-1.84035 1.076287,-12.25788 0,-8.93261 -0.224277,-12.18311 -0.826762,-11.98227 -0.454711,0.1516 -1.229701,1.86259 -1.722217,3.80228 -1.0478656,4.12697 -3.7312478,6.80471 -6.81898,6.80471 H 1.6649877 v -9.32793 -9.32793 h 3.5523416 c 8.8357677,0 13.7622217,2.55356 15.3223467,7.94216 0.488962,1.68878 1.28554,3.20269 1.770163,3.36424 0.657673,0.21912 0.881164,-1.54122 0.881164,-6.9414 v -7.23515 H 3.4588268 c -18.0649298,0 -23.4012118,0.52188 -17.4686018,1.70841 4.3000775,0.86001 4.1942034,0.31364 4.1942034,21.64805 0,21.55216 -0.05912,21.84817 -4.3564314,21.84817 -1.871319,0 -2.650812,0.64652 -1.802328,1.49487 0.679883,0.67978 40.130974,0.27065 40.34942,-0.41856 z"
       id="path74" /><path
       style="fill:#f9f9f9;fill-opacity:1;stroke-width:2.71194"
       d="m 228.4058,516.0942 c 0,-0.38076 0.66139,-1.04624 1.46977,-1.47888 1.14224,-0.61132 2.42203,-0.45704 5.74312,0.69228 2.35036,0.81339 5.66758,1.4789 7.3716,1.4789 9.10319,0 16.26946,-6.3211 16.26946,-14.35069 0,-6.33536 -3.51039,-10.57357 -12.79311,-15.4456 -8.4645,-4.44256 -9.88136,-5.40145 -11.14702,-7.54407 -1.65626,-2.80385 -1.47342,-4.08711 0.92385,-6.48441 5.12057,-5.12055 14.66069,-0.93426 17.6435,7.74213 1.74968,5.08949 2.50265,3.65827 2.50265,-4.75699 0,-4.37398 -0.2835,-7.95268 -0.63001,-7.95268 -0.3465,0 -1.10175,0.71047 -1.67833,1.57886 l -1.04833,1.57884 -4.12578,-1.57884 c -4.71167,-1.80306 -10.77869,-2.06381 -14.24598,-0.61224 -3.73721,1.56454 -7.50692,6.28871 -8.08285,10.12939 -1.07423,7.16337 2.8052,12.32164 13.43535,17.86422 7.48161,3.90093 8.89798,4.96746 10.36557,7.8055 1.33498,2.58152 0.63663,5.13278 -2.01589,7.36473 -3.76957,3.17188 -10.74863,1.97991 -15.1064,-2.58006 -2.23846,-2.34233 -4.80932,-7.36175 -4.83541,-9.44074 -0.008,-0.69065 -0.50008,-1.25571 -1.09207,-1.25571 -0.89931,0 -1.07629,1.47494 -1.07629,8.96919 0,7.49423 0.17709,8.96917 1.07629,8.96917 0.59199,0 1.07631,-0.31155 1.07631,-0.6923 z"
       id="path75" /><path
       style="fill:#f9f9f9;fill-opacity:1;stroke-width:2.71194"
       d="m 215.4902,495.42014 c 0,-23.26247 0.2099,-24.55582 3.98712,-24.55582 1.08,0 1.75316,-0.41325 1.75316,-1.07629 0,-0.888 -1.31079,-1.07631 -7.49176,-1.07631 -7.9375,0 -10.18897,0.8695 -5.51234,2.12879 3.86912,1.04184 4.40009,2.95639 4.36451,15.73724 l -0.0293,10.47657 -2.16272,-2.51139 c -1.18948,-1.38124 -6.26189,-7.75085 -11.27198,-14.15469 l -9.1093,-11.64336 -8.43101,-0.0163 c -8.49411,-0.0163 -10.49962,0.66752 -6.45913,2.20372 4.59112,1.74554 4.4859,1.24495 4.4859,21.34388 0,17.82105 -0.0423,18.3642 -1.56012,19.97975 -0.85809,0.91338 -2.33802,1.66069 -3.28872,1.66069 -1.04182,0 -1.61254,0.34799 -1.43657,0.87592 0.39589,1.18773 15.77961,1.13674 16.17639,-0.0537 0.15675,-0.47023 -0.48552,-0.82232 -1.50005,-0.82232 -0.97578,0 -2.5364,-0.61672 -3.46808,-1.37047 -1.64821,-1.33352 -1.70017,-1.71604 -1.9244,-14.1713 -0.12664,-7.04043 -0.12664,-14.36842 0,-16.28437 l 0.23052,-3.48357 3.93717,4.91864 c 2.16542,2.70524 4.12466,5.08009 4.35382,5.27741 0.46141,0.39727 17.00638,20.79826 20.41035,25.16725 3.91094,5.01969 3.94644,4.85285 3.94644,-18.5498 z"
       id="path76" /><path
       style="fill:#f9f9f9;fill-opacity:1;stroke-width:2.71194"
       d="m 72.700972,496.01177 c 0,-22.54909 0.226719,-24.07578 3.711018,-24.97863 4.339536,-1.12448 2.27152,-1.96573 -5.325462,-2.1663 -7.904325,-0.20882 -9.782587,0.48579 -5.307861,1.9626 3.570295,1.17828 4.052288,3.00049 4.051284,15.31625 l -8.68e-4,10.90863 -1.613576,-1.90896 c -0.887455,-1.04992 -5.972584,-7.42387 -11.30027,-14.16432 l -9.68672,-12.25536 -8.490809,-0.008 c -6.474239,-0.005 -8.420679,0.2061 -8.195453,0.88992 0.162445,0.4933 0.985573,0.99867 1.829149,1.12301 0.843576,0.12421 2.376309,1.2274 3.406114,2.45124 l 1.872349,2.22518 -0.233497,17.88342 c -0.232414,17.79921 -0.241363,17.88984 -1.927348,19.25414 -0.93166,0.75389 -2.492299,1.37072 -3.468082,1.37072 -1.100478,0 -1.660574,0.34059 -1.475051,0.89692 0.213159,0.63945 2.444813,0.90199 7.773285,0.91455 4.110811,0.0109 7.875959,-0.10495 8.366982,-0.25465 1.363373,-0.41564 0.302598,-1.55375 -1.473288,-1.58074 -0.864647,-0.0136 -2.286381,-0.62006 -3.159408,-1.34873 -1.537805,-1.2835 -1.59378,-1.82006 -1.79384,-17.19757 -0.11363,-8.73 -0.01356,-15.87246 0.219939,-15.87208 0.234582,3.5e-4 3.46339,3.77665 7.175329,8.3918 3.711966,4.61512 9.427106,11.63798 12.700308,15.60634 3.273202,3.96838 7.083232,8.58751 8.466728,10.26474 1.383495,1.67722 2.822287,3.04952 3.197267,3.04952 0.415062,0 0.681836,-8.12871 0.681836,-20.77473 z"
       id="path77" /><path
       style="fill:#f9f9f9;fill-opacity:1;stroke-width:2.71194"
       d="m -125.87652,514.60396 4.84336,-1.60704 v -6.35684 c 0,-5.40015 0.21587,-6.57285 1.43508,-7.79194 0.78928,-0.78929 2.08084,-1.43505 2.87012,-1.43505 0.78928,0 1.43508,-0.32289 1.43508,-0.71756 0,-0.44934 -4.4248,-0.71752 -11.83932,-0.71752 -7.41453,0 -11.8393,0.26821 -11.8393,0.71752 0,0.39467 0.80721,0.71756 1.79381,0.71756 3.5131,0 4.664,2.2064 4.664,8.9415 v 6.07138 l -3.04952,0.83867 c -8.14868,2.24096 -15.89755,-2.77496 -17.74647,-11.48745 -0.56669,-2.67031 -0.7917,-7.05031 -0.58318,-11.35196 0.63923,-13.18791 5.43817,-19.56091 14.72955,-19.56091 5.89852,0 11.05305,3.46146 14.69182,9.86608 1.17714,2.0719 2.43231,3.76708 2.78928,3.76708 0.35697,0 0.64905,-3.71324 0.64905,-8.25165 0,-6.68392 -0.19526,-8.25164 -1.02796,-8.25164 -0.56536,0 -1.2329,0.64579 -1.48341,1.43508 -0.57658,1.81662 -1.87324,1.80363 -7.20022,-0.0721 -6.06186,-2.13459 -17.01129,-1.75419 -22.19996,0.77128 -4.53892,2.20922 -9.05592,6.71901 -11.63419,11.61561 -1.82047,3.45742 -2.0166,4.52755 -2.01711,11.00518 -5.2e-4,6.59769 0.16922,7.4817 2.10761,10.98081 3.46689,6.25812 9.64916,10.90614 16.43559,12.35678 5.10046,1.09023 16.77397,0.30973 22.17629,-1.48275 z"
       id="path78" /><path
       style="fill:#f9f9f9;fill-opacity:1;stroke-width:2.71194"
       d="m 122.96725,558.104 c 2.89133,-1.91338 5.30135,-6.77301 4.86636,-9.81269 -0.2354,-1.64438 -0.42366,-1.68669 -7.41678,-1.66602 l -7.17533,0.0217 -0.22482,2.29083 -0.22482,2.2908 h 4.35066 c 4.9139,0 5.44725,0.77017 2.01868,2.91498 -4.3414,2.71588 -10.06004,0.24679 -10.9971,-4.74803 -1.17023,-6.23792 6.39755,-10.69049 11.43511,-6.72794 1.99957,1.57287 3.97082,1.41224 5.51587,-0.44942 1.0515,-1.26697 -0.56135,-3.39882 -3.86305,-5.10621 -2.66006,-1.37557 -9.10604,-1.34954 -11.80797,0.0477 -2.93448,1.5175 -5.70872,4.99361 -6.58627,8.2526 -1.51115,5.61195 2.4956,12.65681 8.20147,14.42019 3.42133,1.05738 8.90061,0.26224 11.90804,-1.72797 z"
       id="path79" /><path
       style="fill:#f9f9f9;fill-opacity:1;stroke-width:2.71194"
       d="m 17.959835,548.15422 -0.150241,-11.63554 -2.663287,-0.22103 -2.663287,-0.22102 -0.206921,6.59297 -0.20692,6.59297 -7.2779766,-6.55129 C 0.78829924,539.10806 -2.8442344,536.16 -3.2810735,536.16 c -0.5485439,0 -0.7942456,3.66236 -0.7942456,11.83929 v 11.83932 h 2.8701263 2.8701534 v -6.1347 c 0,-5.01188 0.1811575,-6.02967 0.9891255,-5.56089 0.9151709,0.53092 7.1225549,5.83444 12.1796969,10.40623 1.179992,1.06674 2.399876,1.78226 2.710881,1.59003 0.311006,-0.19227 0.497804,-5.58545 0.415117,-11.98498 z"
       id="path80" /></g></svg>
